<svg xmlns="http://www.w3.org/2000/svg" viewBox="0 0 500 500"><g id="freepik--background-simple--inject-4"><path d="M381,320.75c-20.18,26.11-51.57,43.66-85.71,48.58-33.55,4.85-47.18-24.59-78.27-37.78-25.24-10.69-54.11-8.17-79.58-17.85-24.31-9.24-44.81-27.51-55.31-51.05-13.69-30.65-7.3-61.62,6.38-91,8.46-18.17,18-35.29,32.43-49.65,31.86-31.8,77.77-40.95,118.35-20.08,15.51,8,29.27,18.82,42.75,29.79,33.58,27.31,66.24,55.7,99.3,83.62,6,5,12,10.18,16.11,16.79,6.63,10.73,7.24,24.09,5.54,36.55A108.63,108.63,0,0,1,381,320.75Z" style="fill:#20E3E3"></path><path d="M381,320.75c-20.18,26.11-51.57,43.66-85.71,48.58-33.55,4.85-47.18-24.59-78.27-37.78-25.24-10.69-54.11-8.17-79.58-17.85-24.31-9.24-44.81-27.51-55.31-51.05-13.69-30.65-7.3-61.62,6.38-91,8.46-18.17,18-35.29,32.43-49.65,31.86-31.8,77.77-40.95,118.35-20.08,15.51,8,29.27,18.82,42.75,29.79,33.58,27.31,66.24,55.7,99.3,83.62,6,5,12,10.18,16.11,16.79,6.63,10.73,7.24,24.09,5.54,36.55A108.63,108.63,0,0,1,381,320.75Z" style="fill:#fff;opacity:0.9"></path></g><g id="freepik--Shadow--inject-4"><ellipse id="freepik--path--inject-4" cx="250" cy="416.24" rx="193.89" ry="11.32" style="fill:#f5f5f5"></ellipse></g><g id="freepik--Blog--inject-4"><path d="M244.27,245.78,225.91,189a7.62,7.62,0,0,0-4.55-4.54,4.77,4.77,0,0,0,2.79-4.45l-1.34-57.38a5.05,5.05,0,0,0-5-4.89H116.2a4.77,4.77,0,0,0-4.78,4.88L112.75,180a5,5,0,0,0,1.75,3.66,1.48,1.48,0,0,1,.29,1.94,4,4,0,0,0-.28,3.39l18.36,56.83a7.39,7.39,0,0,0,6.48,4.9H241C243.65,250.68,245.14,248.47,244.27,245.78Z" style="fill:#263238"></path><rect x="197.5" y="114.19" width="5.17" height="1" style="fill:#20E3E3"></rect><rect x="173.17" y="114.19" width="18" height="1" style="fill:#20E3E3"></rect><path d="M245.55,245.78,227.19,189a7.57,7.57,0,0,0-4.55-4.54,4.76,4.76,0,0,0,2.79-4.45l-1.33-57.39a5,5,0,0,0-5-4.88H117.49a4.76,4.76,0,0,0-4.78,4.88L114,180a5,5,0,0,0,1.74,3.66,1.48,1.48,0,0,1,.3,1.94,4,4,0,0,0-.28,3.39l18.36,56.83a7.39,7.39,0,0,0,6.48,4.9h101.6C244.93,250.68,246.42,248.47,245.55,245.78Z" style="fill:#20E3E3"></path><g style="opacity:0.5"><polygon points="159.1 121.77 143.48 121.77 129.69 180.77 145.31 180.77 159.1 121.77" style="fill:#fff"></polygon><polygon points="170.37 121.77 163.38 121.77 149.59 180.77 156.58 180.77 170.37 121.77" style="fill:#fff"></polygon><polygon points="209.08 121.77 202.08 121.77 188.29 180.77 195.28 180.77 209.08 121.77" style="fill:#fff"></polygon></g><path d="M120.07,180.77a2,2,0,0,1-2-1.93l-1.29-55.14a1.89,1.89,0,0,1,1.89-1.93h99.37a2,2,0,0,1,2,1.93l1.29,55.14a1.89,1.89,0,0,1-1.89,1.93Z" style="fill:#fff;opacity:0.8"></path><path d="M132.59,222.31a2.9,2.9,0,0,1-2.55-1.93l-9.8-30.31a1.36,1.36,0,0,1,1.31-1.93h99.37a2.9,2.9,0,0,1,2.55,1.93l9.8,30.31a1.36,1.36,0,0,1-1.31,1.93Z" style="opacity:0.2"></path><path d="M175.78,246.15a1.69,1.69,0,0,1-1.49-1.12l-5.71-17.67a.8.8,0,0,1,.77-1.13h28.39a1.7,1.7,0,0,1,1.49,1.13L204.94,245a.79.79,0,0,1-.76,1.12Z" style="opacity:0.2"></path><path d="M206.67,173.69H145.79c-2.64,0-4.83,2.26-4.51,7.08h60.89C201.84,176,204,173.67,206.67,173.69Z" style="fill:#263238"></path><path d="M145.79,173.69c2.63,0,4.7,2.35,5,7.17,1,14.36,1.38,48.57,7.77,75.77.95,4.69,3.72,7.56,6.2,6.42h60.88c-2.47,1.14-5.25-1.73-6.2-6.42-6.39-27.2-6.79-61.41-7.77-75.77-.33-4.82-2.4-7.14-5-7.17Z" style="fill:#20E3E3"></path><path d="M145.79,173.69c2.63,0,4.7,2.35,5,7.17,1,14.36,1.38,48.57,7.77,75.77.95,4.69,3.72,7.56,6.2,6.42h60.88c-2.47,1.14-5.25-1.73-6.2-6.42-6.39-27.2-6.79-61.41-7.77-75.77-.33-4.82-2.4-7.14-5-7.17Z" style="fill:#fff;opacity:0.7000000000000001"></path><path d="M170.91,240.62a2.69,2.69,0,0,0-1.43.57c-2.33,1.75-3.19,6.81-1.92,11.31.94,4.69-.29,9.41-2.77,10.55h60.88c2.48-1.14,3.72-5.86,2.77-10.55-1.27-4.5-.41-9.56,1.92-11.31a2.76,2.76,0,0,1,1.43-.57Z" style="fill:#263238"></path><path d="M253.35,403.79s-1.51-18.89-2.64-45.77c-2.18-51.65-9.66-98-14.23-111.85-1.07-3.26-2.88-5.41-4.7-5.55H170.91a3.12,3.12,0,0,1,1.44.54,9.52,9.52,0,0,1,3.25,5c4.57,13.83,12,60.2,14.22,111.85,1.14,26.88,2.65,45.77,2.65,45.77.35,4.83,2.76,8.71,5.39,8.68h60.89C256.12,412.5,253.71,408.62,253.35,403.79Z" style="fill:#20E3E3"></path><path d="M253.35,403.79s-1.51-18.89-2.64-45.77c-2.18-51.65-9.66-98-14.23-111.85-1.07-3.26-2.88-5.41-4.7-5.55H170.91a3.12,3.12,0,0,1,1.44.54,9.52,9.52,0,0,1,3.25,5c4.57,13.83,12,60.2,14.22,111.85,1.14,26.88,2.65,45.77,2.65,45.77.35,4.83,2.76,8.71,5.39,8.68h60.89C256.12,412.5,253.71,408.62,253.35,403.79Z" style="fill:#fff;opacity:0.7000000000000001"></path><path d="M262.92,403.69H202c.35,4.82-1.49,8.76-4.12,8.78H258.8C261.43,412.45,263.28,408.51,262.92,403.69Z" style="fill:#263238"></path></g><g id="freepik--Character--inject-4"><path d="M350,163.24c3.13,4.47,6,8.94,8.68,13.63a100.72,100.72,0,0,1,7.26,15,32.93,32.93,0,0,1,1.3,4.55c.08.44.15.91.21,1.36a15.55,15.55,0,0,1,.1,1.57,12,12,0,0,1-.52,3.34,17.22,17.22,0,0,1-2.41,4.76,27.33,27.33,0,0,1-2.91,3.54A57.44,57.44,0,0,1,348.31,221l-3.24-4.47a96.63,96.63,0,0,0,9.81-11.23,28.76,28.76,0,0,0,1.73-2.83,7.9,7.9,0,0,0,.86-2.38,1.21,1.21,0,0,0,0-.56c0-.09-.05-.25-.07-.39l-.14-.58a23.5,23.5,0,0,0-1.09-3,68.32,68.32,0,0,0-3.27-6.51c-1.21-2.2-2.5-4.39-3.83-6.57-2.66-4.35-5.48-8.74-8.27-13Z" style="fill:#ffb573"></path><path d="M346.13,216l-5,2.12,4.94,6.9s3.63-2,4.09-5.55Z" style="fill:#ffb573"></path><polygon points="336.65 220.88 339.84 226.66 346.07 224.97 341.13 218.07 336.65 220.88" style="fill:#ffb573"></polygon><polygon points="298.15 290.58 297.3 290.92 291.62 293.25 248 186.58 254.52 183.91 298.15 290.58" style="fill:#20E3E3"></polygon><polygon points="298.15 290.58 297.3 290.92 291.62 293.25 248 186.58 254.52 183.91 298.15 290.58" style="fill:#fff;opacity:0.30000000000000004"></polygon><polygon points="311.19 285.26 307.02 286.96 304.67 287.92 261.05 181.25 267.57 178.58 311.19 285.26" style="fill:#20E3E3"></polygon><polygon points="311.19 285.26 307.02 286.96 304.67 287.92 261.05 181.25 267.57 178.58 311.19 285.26" style="fill:#fff;opacity:0.30000000000000004"></polygon><rect x="276.07" y="178.29" width="7.04" height="115.25" transform="translate(-68.42 123.14) rotate(-22.2)" style="fill:#20E3E3"></rect><polygon points="256.09 170.06 250.22 172.46 248 186.58 267.56 178.58 256.09 170.06" style="fill:#20E3E3"></polygon><polygon points="256.09 170.06 250.22 172.46 248 186.58 267.56 178.58 256.09 170.06" style="opacity:0.30000000000000004"></polygon><polygon points="251.17 166.41 250.22 172.46 256.09 170.06 251.17 166.41" style="fill:#20E3E3"></polygon><path d="M313.58,133.17c.07.59-.19,1.1-.58,1.14s-.75-.4-.81-1,.19-1.1.58-1.14S313.52,132.58,313.58,133.17Z" style="fill:#263238"></path><path d="M313.44,134.26a21,21,0,0,1-2.26,5.35,3.43,3.43,0,0,0,2.88.22Z" style="fill:#ed893e"></path><path d="M315.38,129.66a.39.39,0,0,0,.2-.16.36.36,0,0,0-.14-.48,3.48,3.48,0,0,0-3.17-.19.36.36,0,0,0-.15.47.35.35,0,0,0,.47.15h0a2.76,2.76,0,0,1,2.51.18A.35.35,0,0,0,315.38,129.66Z" style="fill:#263238"></path><path d="M332.47,137.52c-1.05,5.38-2.1,15.23,1.66,18.81,0,0-1.47,5.45-11.46,5.45-11,0-5.25-5.45-5.25-5.45,6-1.43,5.84-5.87,4.8-10.05Z" style="fill:#ffb573"></path><path d="M336.36,158.14c1-.74.51-3.65-.88-4.7-2.35-1.78-13.48-2.52-18.33.9a6.18,6.18,0,0,0-1.18,4.42Z" style="fill:#20E3E3"></path><path d="M364.92,408.17a2.33,2.33,0,0,1-1.82-.19.71.71,0,0,1-.13-.81.81.81,0,0,1,.47-.49c1-.42,3.25.62,3.34.66a.15.15,0,0,1,.1.16.18.18,0,0,1-.1.16A9.22,9.22,0,0,1,364.92,408.17Zm-1.13-1.23a1.05,1.05,0,0,0-.21.06.48.48,0,0,0-.28.28c-.11.31,0,.42,0,.45.38.36,1.86.12,2.91-.24A5.73,5.73,0,0,0,363.79,406.94Z" style="fill:#20E3E3"></path><path d="M366.74,407.67h-.09c-.81-.28-2.53-1.63-2.51-2.46a.58.58,0,0,1,.48-.54.9.9,0,0,1,.76.1c1,.55,1.48,2.61,1.5,2.7a.22.22,0,0,1-.05.17Zm-1.95-2.7-.08,0c-.21.07-.22.17-.22.22,0,.49,1.11,1.54,1.95,2a4.15,4.15,0,0,0-1.23-2.13A.65.65,0,0,0,364.79,405Z" style="fill:#20E3E3"></path><path d="M314.59,409.11c-.95,0-1.86-.13-2.16-.55a.66.66,0,0,1,0-.76.89.89,0,0,1,.56-.41c1.22-.33,3.79,1.13,3.89,1.2a.16.16,0,0,1,.09.18.18.18,0,0,1-.14.14A13.29,13.29,0,0,1,314.59,409.11Zm-1.17-1.42a1.15,1.15,0,0,0-.33,0,.49.49,0,0,0-.34.24c-.13.22-.08.33,0,.39.34.47,2.2.48,3.57.29A7.87,7.87,0,0,0,313.42,407.69Z" style="fill:#20E3E3"></path><path d="M316.81,408.91h-.07c-.89-.4-2.65-2-2.51-2.82,0-.2.17-.44.65-.49a1.32,1.32,0,0,1,1,.3c.93.77,1.13,2.75,1.14,2.83a.17.17,0,0,1-.07.16A.19.19,0,0,1,316.81,408.91Zm-1.8-3h-.1c-.31,0-.33.15-.34.19-.08.5,1.11,1.75,2,2.29a4.15,4.15,0,0,0-1-2.26A1,1,0,0,0,315,405.93Z" style="fill:#20E3E3"></path><polygon points="324.88 408.74 317.54 408.74 316.81 391.73 324.15 391.73 324.88 408.74" style="fill:#ffb573"></polygon><polygon points="375.01 406.13 367.77 407.32 361.35 391.14 368.6 389.94 375.01 406.13" style="fill:#ffb573"></polygon><path d="M367.11,406.57l8.15-1.34a.63.63,0,0,1,.69.39l2.5,6.2a1.08,1.08,0,0,1-.85,1.47c-2.85.42-4.26.48-7.84,1.07-2.2.37-7.18,1.32-10.22,1.82s-3.94-2.44-2.74-2.92c5.38-2.14,7.69-4.15,9.21-6.05A1.78,1.78,0,0,1,367.11,406.57Z" style="fill:#263238"></path><path d="M317.59,407.89h8a.64.64,0,0,1,.63.5l1.45,6.53a1.07,1.07,0,0,1-1.06,1.3c-2.89,0-7.08-.21-10.71-.21-4.26,0-7.93.23-12.92.23-3,0-3.85-3.05-2.59-3.33,5.75-1.25,10.44-1.39,15.41-4.45A3.41,3.41,0,0,1,317.59,407.89Z" style="fill:#263238"></path><path d="M347.28,158c7,.88,14.42,17.8,14.42,17.8L349,187.66a30.17,30.17,0,0,1-8.66-12.77C337.07,166,340.11,157.09,347.28,158Z" style="fill:#20E3E3"></path><g style="opacity:0.4"><path d="M347.28,158c7,.88,14.42,17.8,14.42,17.8L349,187.66a30.17,30.17,0,0,1-8.66-12.77C337.07,166,340.11,157.09,347.28,158Z"></path></g><path d="M342.71,171.45c4.09,3.3,6,9.89,6.86,15.69l-.56.53a30.21,30.21,0,0,1-8.67-12.78c-.19-.53-.37-1.07-.52-1.59Z" style="opacity:0.2"></path><path d="M306.12,158.37s-7.81,8.83-.43,63.5H345c.27-6-3.52-35.46,2.3-63.88a102.56,102.56,0,0,0-13.15-1.66,145.44,145.44,0,0,0-16.71,0A73.8,73.8,0,0,0,306.12,158.37Z" style="fill:#20E3E3"></path><g style="opacity:0.4"><path d="M306.12,158.37s-7.81,8.83-.43,63.5H345c.27-6-3.52-35.46,2.3-63.88a102.56,102.56,0,0,0-13.15-1.66,145.44,145.44,0,0,0-16.71,0A73.8,73.8,0,0,0,306.12,158.37Z"></path></g><path d="M302.69,175.08l.15-.13,8.93,2.14c.51,6-5.7,13.26-8.9,16.56A171.45,171.45,0,0,1,302.69,175.08Z" style="opacity:0.2"></path><polygon points="316.81 391.73 317.19 400.5 324.53 400.5 324.16 391.73 316.81 391.73" style="opacity:0.2"></polygon><polygon points="368.6 389.95 361.35 391.14 364.66 399.49 371.91 398.29 368.6 389.95" style="opacity:0.2"></polygon><path d="M333.09,129.75c.35,7.28.93,11.53-2.31,15.64-4.88,6.19-14.18,3.87-16.7-3.16-2.27-6.33-2.47-17.18,4.3-20.84A10,10,0,0,1,333.09,129.75Z" style="fill:#ffb573"></path><path d="M318.25,135.5c-3.27.17-3.16-.94-3.16-.94s1.22-3.44,1.05-4.88c-1.17-.5-2.23-4-2.08-5-1.53.27-7.53-4.17.25-9,2.17,1.67,5.48,1.52,8.39.78,5.89-1.5,15.18.24,13.22,4.67,3.5,0,5.14,8.65,1.39,13.39-3.94,5-3,10.83-7,11.39s-6.89-2.56-6.89-2.56S321.58,133.72,318.25,135.5Z" style="fill:#263238"></path><path d="M335.45,121.28s2.5-.72.7-4.22C338.76,117.64,340.12,121.75,335.45,121.28Z" style="fill:#263238"></path><path d="M322.05,132.88a8.17,8.17,0,0,1-1.49,5.08c-1.38,1.94-3.17,1-3.7-1.06-.48-1.89-.33-5.18,1.5-6.37S321.92,130.7,322.05,132.88Z" style="fill:#ffb573"></path><path d="M319.63,221.87S328,278,332.54,299c5,23,28.23,99.24,28.23,99.24l13.15-2.85s-15.13-62.1-19.34-94.3c-3.23-24.73-9.6-79.26-9.6-79.26Z" style="fill:#20E3E3"></path><path d="M357.62,393.89c-.05,0,2.45,4.76,2.45,4.76l14.8-3.21L373.62,391Z" style="fill:#263238"></path><path d="M324.9,241.87c9.64,1.89,8.62,37.84,7.46,56.33-2.78-13.07-6.85-38.22-9.63-56.07A3.29,3.29,0,0,1,324.9,241.87Z" style="opacity:0.30000000000000004"></path><path d="M305.69,221.87s-3.05,54.93-2.25,77.33c.83,23.3,11,99.6,11,99.6h12.44s-1.58-74.94-1-97.82c.61-25,8.08-79.11,8.08-79.11Z" style="fill:#20E3E3"></path><path d="M312.05,393.84c-.06,0,.7,5.17.7,5.17h15.14l.41-4.61Z" style="fill:#263238"></path><path d="M312.59,169.62c-.9,2.88-1.9,5.47-3,8.15s-2.25,5.27-3.52,7.86a71.54,71.54,0,0,1-9.59,15,35.27,35.27,0,0,1-3.47,3.44,22.06,22.06,0,0,1-4.35,2.92,41.16,41.16,0,0,1-4.24,1.79c-1.37.51-2.73,1-4.1,1.39A122.18,122.18,0,0,1,263.9,214l-1.6-5.27,14.82-6.87a75,75,0,0,0,6.75-3.55,15.88,15.88,0,0,0,2.35-1.88,28.23,28.23,0,0,0,2.25-2.53,50.27,50.27,0,0,0,4.06-6.2c1.26-2.22,2.44-4.54,3.54-6.92s2.14-4.81,3.15-7.25,1.94-5,2.77-7.36Z" style="fill:#ffb573"></path><path d="M316.84,165.71c5.68,8.39-7.6,23.7-7.6,23.7L294.4,179.08a62,62,0,0,1,5-15.08C304.28,153.88,312.53,159.33,316.84,165.71Z" style="fill:#20E3E3"></path><g style="opacity:0.4"><path d="M316.84,165.71c5.68,8.39-7.6,23.7-7.6,23.7L294.4,179.08a62,62,0,0,1,5-15.08C304.28,153.88,312.53,159.33,316.84,165.71Z"></path></g><path d="M266.41,208.07l-9.14,1,2.12,7.75s6.48.21,8.59-4.71Z" style="fill:#ffb573"></path><polygon points="254.33 211.41 256.09 217.75 259.39 216.8 257.27 209.05 254.33 211.41" style="fill:#ffb573"></polygon></g></svg>