<svg width="69" height="69" viewBox="0 0 69 69" fill="none" xmlns="http://www.w3.org/2000/svg">
<g filter="url(#filter0_d)">
<rect x="3" y="2" width="55" height="55" rx="27" fill="#141414"/>
</g>
<path d="M31.5 49.5C28.8 49.5 26.2667 49 23.9 48C21.5667 46.9667 19.5167 45.55 17.75 43.75C16.0167 41.9167 14.65 39.7833 13.65 37.35C12.6833 34.9167 12.2 32.2833 12.2 29.45C12.2 26.65 12.6833 24.05 13.65 21.65C14.65 19.2167 16.0167 17.1 17.75 15.3C19.5167 13.4667 21.5667 12.0333 23.9 11C26.2333 9.96667 28.7667 9.45 31.5 9.45C34.0667 9.45 36.2667 9.78333 38.1 10.45C39.9667 11.1167 41.8333 12.2167 43.7 13.75C44.1 14.0833 44.3667 14.4 44.5 14.7C44.6333 15 44.7 15.3667 44.7 15.8C44.7 16.4333 44.4667 16.9667 44 17.4C43.5667 17.8333 43.0167 18.0667 42.35 18.1C41.7167 18.1333 41.1167 17.9167 40.55 17.45C39.3167 16.3833 38.0333 15.5667 36.7 15C35.4 14.4333 33.6667 14.15 31.5 14.15C29.5333 14.15 27.6833 14.55 25.95 15.35C24.2167 16.15 22.6833 17.25 21.35 18.65C20.05 20.05 19.0333 21.6833 18.3 23.55C17.5667 25.3833 17.2 27.35 17.2 29.45C17.2 31.5833 17.5667 33.5833 18.3 35.45C19.0333 37.2833 20.05 38.9 21.35 40.3C22.6833 41.7 24.2167 42.8 25.95 43.6C27.6833 44.3667 29.5333 44.75 31.5 44.75C32.9667 44.75 34.3667 44.5333 35.7 44.1C37.0333 43.6667 38.3167 43.05 39.55 42.25V33.35H32.65C31.9167 33.35 31.3 33.1333 30.8 32.7C30.3 32.2667 30.05 31.7167 30.05 31.05C30.05 30.3833 30.3 29.8333 30.8 29.4C31.3 28.9667 31.9167 28.75 32.65 28.75H42C42.7667 28.75 43.3833 29 43.85 29.5C44.3167 29.9667 44.55 30.5833 44.55 31.35V43.3C44.55 43.6333 44.4833 43.9667 44.35 44.3C44.25 44.6 44.05 44.8833 43.75 45.15C41.9833 46.6167 40.0667 47.7167 38 48.45C35.9333 49.15 33.7667 49.5 31.5 49.5Z" fill="#2DC7BD"/>
<defs>
<filter id="filter0_d" x="0" y="0" width="69" height="69" filterUnits="userSpaceOnUse" color-interpolation-filters="sRGB">
<feFlood flood-opacity="0" result="BackgroundImageFix"/>
<feColorMatrix in="SourceAlpha" type="matrix" values="0 0 0 0 0 0 0 0 0 0 0 0 0 0 0 0 0 0 127 0"/>
<feOffset dx="4" dy="5"/>
<feGaussianBlur stdDeviation="3.5"/>
<feColorMatrix type="matrix" values="0 0 0 0 0 0 0 0 0 0 0 0 0 0 0 0 0 0 0.25 0"/>
<feBlend mode="normal" in2="BackgroundImageFix" result="effect1_dropShadow"/>
<feBlend mode="normal" in="SourceGraphic" in2="effect1_dropShadow" result="shape"/>
</filter>
</defs>
</svg>
