<svg width="64" height="64" viewBox="0 0 64 64" fill="none" xmlns="http://www.w3.org/2000/svg">
<g filter="url(#filter0_d)">
<rect x="3" y="2" width="50" height="50" rx="14" fill="#141414"/>
<path d="M25.45 46C24.8167 46 24.25 45.7667 23.75 45.3C23.25 44.8333 23 44.2167 23 43.45V23.95H20.85C20.15 23.95 19.5833 23.75 19.15 23.35C18.7167 22.95 18.5 22.45 18.5 21.85C18.5 21.1833 18.7167 20.65 19.15 20.25C19.5833 19.85 20.15 19.65 20.85 19.65H23V18.8C23 16.4 23.4667 14.3167 24.4 12.55C25.3667 10.7833 26.7 9.41666 28.4 8.45C30.1 7.45 32.0667 6.95 34.3 6.95C35.0333 6.95 35.6333 7.16667 36.1 7.6C36.6 8.03333 36.85 8.58333 36.85 9.25C36.85 9.88333 36.6 10.4333 36.1 10.9C35.6333 11.3333 35.0333 11.55 34.3 11.55C32.4333 11.55 30.9333 12.1667 29.8 13.4C28.6667 14.6333 28.1 16.2667 28.1 18.3V19.65H33.2C33.9 19.65 34.4667 19.85 34.9 20.25C35.3333 20.65 35.55 21.1833 35.55 21.85C35.55 22.45 35.3333 22.95 34.9 23.35C34.4667 23.75 33.9 23.95 33.2 23.95H28.1V43.45C28.1 44.2167 27.8667 44.8333 27.4 45.3C26.9333 45.7667 26.2833 46 25.45 46Z" fill="#31BBB3"/>
</g>
<defs>
<filter id="filter0_d" x="0" y="0" width="64" height="64" filterUnits="userSpaceOnUse" color-interpolation-filters="sRGB">
<feFlood flood-opacity="0" result="BackgroundImageFix"/>
<feColorMatrix in="SourceAlpha" type="matrix" values="0 0 0 0 0 0 0 0 0 0 0 0 0 0 0 0 0 0 127 0"/>
<feOffset dx="4" dy="5"/>
<feGaussianBlur stdDeviation="3.5"/>
<feColorMatrix type="matrix" values="0 0 0 0 0 0 0 0 0 0 0 0 0 0 0 0 0 0 0.25 0"/>
<feBlend mode="normal" in2="BackgroundImageFix" result="effect1_dropShadow"/>
<feBlend mode="normal" in="SourceGraphic" in2="effect1_dropShadow" result="shape"/>
</filter>
</defs>
</svg>
